<?xml version="1.0" encoding="UTF-8"?>
<svg id="Layer_1" xmlns="http://www.w3.org/2000/svg" version="1.1" viewBox="0 0 88 79">
  <!-- Generator: Adobe Illustrator 29.2.1, SVG Export Plug-In . SVG Version: 2.1.0 Build 116)  -->
  <path d="M44,79.4h0c-21-.9-34.4-8.2-41-22.3C1,53,0,48.4,0,43.5v-26.4C0,10.6,3.7,4.7,9.4,2.1c7-3.2,16.1-2.6,22.1,1.4,4,2.7,6.5,7.4,6.5,12.6v5.2c0,1.6.6,3.1,1.7,4.1,1.1,1.1,2.6,1.7,4.2,1.6h.1s.2,0,.2,0c1.6,0,3.1-.5,4.2-1.6,1.1-1.1,1.7-2.6,1.7-4.1v-5.2c0-5.1,2.4-9.8,6.5-12.6,5.9-4,15-4.6,22.1-1.4,5.7,2.6,9.4,8.5,9.4,15v26.4c0,4.9-1,9.5-2.9,13.6-6.6,14-20,21.3-41,22.3h0ZM19.3,2.8c-3,0-6,.6-8.7,1.8-4.7,2.1-7.7,7-7.7,12.5v26.4c0,4.5.9,8.6,2.7,12.4,6.2,13.2,18.4,19.7,38.5,20.6,20.1-.9,32.3-7.5,38.5-20.6,1.8-3.7,2.7-7.9,2.7-12.4v-26.4c0-5.4-3-10.3-7.7-12.5-6.2-2.8-14.1-2.3-19.3,1.2-3.3,2.2-5.2,6-5.2,10.2v5.2c0,2.4-.9,4.5-2.6,6.2-1.7,1.6-3.9,2.5-6.2,2.4h-.1s0,0,0,0c-2.4,0-4.6-.8-6.2-2.4-1.7-1.6-2.6-3.8-2.6-6.2v-5.2c0-4.2-1.9-8-5.2-10.2-2.9-2-6.7-3-10.6-3Z"/>
</svg>